HIERARCHY
ROOT joint_0
{
	OFFSET 0.000000 0.000000 0.000000
	CHANNELS 6 Xposition Yposition Zposition Zrotation Yrotation Xrotation 
	JOINT joint_1
	{
		OFFSET 6.590088 -1.122192 114.019043
		CHANNELS 3 Zrotation Yrotation Xrotation
		JOINT joint_2
		{
			OFFSET -5.956055 -0.820435 104.151001
			CHANNELS 3 Zrotation Yrotation Xrotation
			JOINT joint_3
			{
				OFFSET -7.343506 -1.103027 103.942993
				CHANNELS 3 Zrotation Yrotation Xrotation
				JOINT joint_4
				{
					OFFSET 3.109131 -2.857056 147.715942
					CHANNELS 3 Zrotation Yrotation Xrotation
					JOINT joint_5
					{
						OFFSET 28.592285 -2.852295 87.703979
						CHANNELS 3 Zrotation Yrotation Xrotation
						End Site
						{
							OFFSET 0.000000 0.000000 0.000000
						}
					}
				}
				JOINT joint_6
				{
					OFFSET -0.332520 -33.687378 82.401978
					CHANNELS 3 Zrotation Yrotation Xrotation
					JOINT joint_7
					{
						OFFSET -7.397461 -168.719177 -22.750977
						CHANNELS 3 Zrotation Yrotation Xrotation
						JOINT joint_8
						{
							OFFSET 17.065918 -24.903137 -272.721069
							CHANNELS 3 Zrotation Yrotation Xrotation
							JOINT joint_9
							{
								OFFSET 33.311279 -37.031616 -278.192993
								CHANNELS 3 Zrotation Yrotation Xrotation
								End Site
								{
									OFFSET 0.000000 0.000000 0.000000
								}
							}
						}
					}
				}
				JOINT joint_10
				{
					OFFSET 3.914307 30.461670 83.552979
					CHANNELS 3 Zrotation Yrotation Xrotation
					JOINT joint_11
					{
						OFFSET 15.543701 166.845459 -30.963013
						CHANNELS 3 Zrotation Yrotation Xrotation
						JOINT joint_12
						{
							OFFSET 35.734863 35.017700 -269.786011
							CHANNELS 3 Zrotation Yrotation Xrotation
							JOINT joint_13
							{
								OFFSET 70.506592 13.977783 -273.320007
								CHANNELS 3 Zrotation Yrotation Xrotation
								End Site
								{
									OFFSET 0.000000 0.000000 0.000000
								}
							}
						}
					}
				}
			}
		}
	}
	JOINT joint_14
	{
		OFFSET -0.314697 -95.093994 -116.004028
		CHANNELS 3 Zrotation Yrotation Xrotation
		JOINT joint_15
		{
			OFFSET -22.490723 2.017883 -455.510986
			CHANNELS 3 Zrotation Yrotation Xrotation
			JOINT joint_16
			{
				OFFSET -46.427490 7.144104 -496.360985
				CHANNELS 3 Zrotation Yrotation Xrotation
				JOINT joint_17
				{
					OFFSET 209.055420 -37.122803 -85.191002
					CHANNELS 3 Zrotation Yrotation Xrotation
					End Site
					{
						OFFSET 0.000000 0.000000 0.000000
					}
				}
			}
		}
	}
	JOINT joint_18
	{
		OFFSET 5.652832 94.642578 -116.244019
		CHANNELS 3 Zrotation Yrotation Xrotation
		JOINT joint_19
		{
			OFFSET -12.379883 -7.332642 -455.843994
			CHANNELS 3 Zrotation Yrotation Xrotation
			JOINT joint_20
			{
				OFFSET -45.227051 -8.172241 -496.457985
				CHANNELS 3 Zrotation Yrotation Xrotation
				JOINT joint_21
				{
					OFFSET 210.522949 -11.530396 -88.809004
					CHANNELS 3 Zrotation Yrotation Xrotation
					End Site
					{
						OFFSET 0.000000 0.000000 0.000000
					}
				}
			}
		}
	}
}
MOTION
Frames: 10
Frame Time: 0.016667
-2321.635254 844.673706 1168.175049 6.386098 4.308560 0.635161 2.777667 4.375229 0.354964 1.795208 -0.883200 -0.045944 1.633215 0.747813 -0.144275 0.625296 -4.944612 -1.454331 0.000000 0.000000 0.000000 -1.603107 -10.162868 -2.692286 -8.155537 -6.669263 -9.244550 2.227774 -74.060945 32.413774 0.000000 0.000000 0.000000 6.915960 -1.388821 5.759246 5.969958 -3.939707 9.333243 -8.379463 -84.880638 -15.783160 0.000000 0.000000 0.000000 0.008603 -29.676398 -9.179359 4.893233 63.322724 7.592942 22.356702 12.773685 9.728457 0.000000 0.000000 0.000000 -3.873766 -26.477219 4.170563 0.430147 12.786441 3.787949 1.458160 10.058184 1.143541 0.000000 0.000000 0.000000 
-2303.052490 847.469971 1155.833984 6.695883 3.850440 0.341624 2.491628 4.349740 1.154494 1.539217 -0.800948 -0.162912 1.407533 0.741362 0.036843 0.489161 -5.108148 -1.083969 0.000000 0.000000 0.000000 -0.758709 -10.604704 -2.877244 -8.364279 -6.990846 -9.083145 2.199804 -73.912879 33.690259 0.000000 0.000000 0.000000 5.853275 -3.509755 5.273946 7.132748 -5.111242 8.642396 -7.880267 -85.161631 -18.415453 0.000000 0.000000 0.000000 -1.112313 -32.001868 -10.170318 4.894844 66.873705 7.510530 22.334625 8.829398 9.040463 0.000000 0.000000 0.000000 -4.281774 -26.110689 4.089496 0.787920 13.958401 4.376078 2.219342 6.260790 1.216375 0.000000 0.000000 0.000000 
-2289.056885 849.435242 1147.285034 6.713189 3.948519 0.813927 2.426013 4.829242 1.125134 1.364621 -0.834558 -0.212119 1.245908 0.883891 0.152830 0.360344 -5.847436 -0.696383 0.000000 0.000000 0.000000 -0.674211 -10.487634 -2.679721 -8.230327 -6.841401 -9.225287 2.525003 -76.974028 32.958014 0.000000 0.000000 0.000000 4.942406 -5.090569 4.658824 8.156753 -5.997812 8.260137 -7.305498 -86.299690 -19.309667 0.000000 0.000000 0.000000 -1.717012 -35.320166 -11.467424 5.230885 68.632955 6.589185 21.504216 5.540766 8.290949 0.000000 0.000000 0.000000 -4.563778 -27.880969 4.072397 1.098798 17.900554 3.612347 2.930645 4.101472 1.357135 0.000000 0.000000 0.000000 
-2277.618652 850.833801 1140.858032 6.513487 4.215567 1.585316 2.611501 5.866656 0.877293 1.207940 -1.043944 -0.301719 1.060378 1.082340 0.226150 0.238221 -6.911429 -0.331147 0.000000 0.000000 0.000000 -0.974025 -9.879514 -2.360617 -7.872850 -6.275538 -9.555241 3.019012 -81.872419 31.099590 0.000000 0.000000 0.000000 4.203672 -6.149083 4.214097 9.027142 -6.503387 7.929502 -6.733426 -88.124761 -19.097919 0.000000 0.000000 0.000000 -1.890741 -38.836384 -12.748583 5.679701 68.623404 5.322245 19.976363 2.733163 7.393061 0.000000 0.000000 0.000000 -4.705666 -30.603618 4.292531 1.232807 23.627192 1.919609 3.507371 2.795894 1.487802 0.000000 0.000000 0.000000 
-2265.820068 851.369751 1136.249023 6.350957 4.357668 2.166408 2.827770 7.156038 0.845483 1.039262 -1.373168 -0.400545 0.828402 1.266189 0.251966 0.170491 -7.773668 -0.103331 0.000000 0.000000 0.000000 -1.302098 -9.337933 -2.183851 -7.811366 -5.716384 -10.055795 3.234940 -86.478439 30.506462 0.000000 0.000000 0.000000 3.930720 -6.463766 4.039834 9.701582 -6.571553 7.797325 173.720267 -89.391511 161.626251 0.000000 0.000000 0.000000 -1.626439 -41.388153 -13.723239 6.150983 66.566452 4.425303 18.694233 0.858050 6.691788 0.000000 0.000000 0.000000 -4.618974 -32.556978 4.677446 1.143786 28.170884 0.246230 3.711472 2.216886 1.516458 0.000000 0.000000 0.000000 
-2252.700684 851.180969 1134.125977 6.429069 4.536845 2.456490 2.766743 8.246946 1.022963 0.836696 -1.642824 -0.375796 0.576042 1.515522 0.225175 0.212597 -8.333606 -0.104405 0.000000 0.000000 0.000000 -1.600564 -9.102275 -2.330907 -8.365758 -5.325083 -10.733293 -177.031399 -89.565907 -147.518039 0.000000 0.000000 0.000000 4.381037 -5.643482 4.031876 10.175979 -6.028437 8.133492 174.035224 -85.840407 162.982740 0.000000 0.000000 0.000000 -0.917633 -42.656021 -14.471009 6.679043 61.634716 4.082177 17.870743 0.371076 6.357271 0.000000 0.000000 0.000000 -4.337715 -33.532483 5.063115 0.873581 30.686085 -0.958730 3.502075 2.064489 1.419746 0.000000 0.000000 0.000000 
-2239.221680 850.129578 1133.821045 6.723022 4.737588 2.680776 2.442001 9.266789 1.174753 0.642208 -1.873041 -0.258867 0.371473 1.766743 0.158192 0.320872 -8.702178 -0.203043 0.000000 0.000000 0.000000 -1.962742 -9.002145 -2.588071 -9.340342 -4.951218 -11.623880 -177.631514 -85.576337 -144.220207 0.000000 0.000000 0.000000 5.239959 -3.982491 4.005127 10.509922 -5.092188 8.919430 174.285532 -81.801231 164.898337 0.000000 0.000000 0.000000 0.079771 -42.651355 -15.168251 7.190963 54.168088 3.862760 16.921817 1.466650 6.274545 0.000000 0.000000 0.000000 -3.944774 -34.085725 5.416248 0.446806 32.351775 -2.032082 2.992651 2.185159 1.228726 0.000000 0.000000 0.000000 
-2225.346436 847.505371 1133.037964 7.226306 4.742414 2.963931 2.007144 10.062252 1.131713 0.516725 -2.050103 -0.145140 0.277034 1.889067 0.099925 0.394537 -8.678910 -0.186704 0.000000 0.000000 0.000000 -2.283634 -8.928330 -2.797174 -10.454482 -4.548154 -12.533774 -178.436214 -81.860818 -141.000863 0.000000 0.000000 0.000000 6.018672 -2.383695 3.983247 10.748762 -4.304557 9.824565 174.458964 -78.643971 166.425564 0.000000 0.000000 0.000000 1.028743 -41.552308 -15.803372 7.574272 46.451051 3.593414 15.752745 3.013005 6.211463 0.000000 0.000000 0.000000 -3.658467 -34.236932 5.768746 -0.079797 33.733676 -3.123947 2.355058 1.940163 0.970398 0.000000 0.000000 0.000000 
-2210.561035 842.590027 1130.619019 7.566018 4.700293 3.267263 1.631888 9.997575 0.828272 0.628728 -1.952099 -0.102887 0.478249 1.860509 0.057113 0.376034 -8.059353 0.033119 0.000000 0.000000 0.000000 -2.492659 -8.730870 -2.980678 -11.576108 -4.019384 -13.287087 -179.442899 -78.572506 -138.393426 0.000000 0.000000 0.000000 6.614551 -1.154452 4.250583 10.853265 -3.804380 10.610787 174.455427 -76.751898 167.047210 0.000000 0.000000 0.000000 2.228565 -39.628427 -16.164709 7.962127 38.896886 3.276906 14.378002 3.670097 5.909598 0.000000 0.000000 0.000000 -3.383237 -34.101520 6.408640 -0.630711 35.009536 -4.440847 1.647519 0.814289 0.639433 0.000000 0.000000 0.000000 
-2195.380371 836.101868 1127.722046 7.993893 4.516566 3.580547 1.305919 9.620219 0.393375 0.804115 -1.802430 -0.086297 0.758176 1.764198 0.024973 0.306519 -7.059527 0.359251 0.000000 0.000000 0.000000 -2.640385 -8.534024 -3.189134 -12.852241 -3.459439 -13.960142 179.311670 -75.528108 -135.764253 0.000000 0.000000 0.000000 7.173735 -0.024525 4.703120 10.858005 -3.457260 11.414927 174.319307 -75.535751 167.248680 0.000000 0.000000 0.000000 3.466063 -36.909085 -16.256605 8.306101 31.310038 2.577823 12.892351 4.201987 5.524806 0.000000 0.000000 0.000000 -3.210081 -33.600607 7.171368 -1.254830 35.994710 -5.816233 0.825691 -0.692607 0.245500 0.000000 0.000000 0.000000 
